<svg xmlns="http://www.w3.org/2000/svg" height="512" width="512"><path d="M0 0h512v512H0z"/><path d="M287.25 160.75c8.168 16.918-.5 42.5-20.5 66.582-31.25 36.336-113.668 111.086-113.668 111.086l118.25-3.586c72.75-70.664 98.336-113.664 102.918-167.414 2.582-28.168-7.668-55.836-28.168-74.75-22.5-21-55.25-29.668-91.082-24.586v77.336c14.832-1 26.582 4.582 32.25 15.332zm-149 190.5V425h240.668v-80.918zM216.082 213c-3.582-47.082 11.25-58.418 25.586-64.5V69.668c-70.168 14.832-104.418 66-100.336 150zm0 0" fill="#fff"/></svg>