<svg xmlns="http://www.w3.org/2000/svg" height="512" width="512"><path d="M0 0h512v512H0z" fill="#0f8f40"/><g fill="#fff" fill-rule="evenodd"><path d="M250.332 81.918c-95.75 0-173.5 78.332-173.5 174.582 0 87.582 64 159.75 147.418 172.582V277c0-9.75 5.168-15.332 13.332-15.332h23.5c1.586 0 1.586-1.586 1.586-2.586V82.418c-4.086-.5-8.168-.5-12.336-.5zm-28.664 149.5c-11.25 0-20.418-9.25-20.418-20.5s9.168-20.418 20.418-20.418c11.332 0 20.5 9.168 20.5 20.418s-9.168 20.5-20.5 20.5zm0 0"/><path d="M284.168 83.418V266.25c0 9.75-5.168 15.332-13.336 15.332h-23.5c-1.582 0-1.582 1.586-1.582 2.586v145.914h34.832c86.5-9.25 154.586-83.5 154.586-173.582 0-88.582-66-161.75-151-173.082zm-1.586 263.164c-10.164 0-18.414-8.164-18.414-18.414s8.25-18.418 18.414-18.418c10.25 0 18.5 8.168 18.5 18.418s-8.75 18.414-18.5 18.414zm49.668 0c-10.168 0-18.418-8.164-18.418-18.414s8.25-18.418 18.418-18.418c10.25 0 18.5 8.168 18.5 18.418s-8.25 18.414-18.5 18.414zm50.25 0c-10.25 0-18.5-8.164-18.5-18.414s8.25-18.418 18.5-18.418c10.168 0 18.418 8.168 18.418 18.418s-8.25 18.414-18.418 18.414zm0 0"/></g></svg>